<svg width="393" height="925" viewBox="0 0 393 925" fill="none" xmlns="http://www.w3.org/2000/svg">
<path opacity="0.8" d="M21.5 333.5H372.5V581C372.5 587.351 367.351 592.5 361 592.5H33C26.6487 592.5 21.5 587.351 21.5 581V333.5Z" stroke="white" stroke-width="5"/>
<path d="M194 537C184.028 537 174.629 535.078 165.802 531.235C157.023 527.392 149.27 522.084 142.542 515.31C135.815 508.537 130.542 500.73 126.725 491.891C122.908 483.004 121 473.54 121 463.5C121 453.46 122.908 444.02 126.725 435.181C130.542 426.294 135.791 418.463 142.471 411.69C149.198 404.916 156.951 399.608 165.73 395.765C174.557 391.922 183.957 390 193.928 390C203.9 390 213.3 391.922 222.126 395.765C230.953 399.608 238.73 404.916 245.458 411.69C252.185 418.463 257.458 426.294 261.275 435.181C265.092 444.02 267 453.46 267 463.5C267 473.54 265.092 483.004 261.275 491.891C257.458 500.73 252.185 508.537 245.458 515.31C238.73 522.084 230.953 527.392 222.126 531.235C213.347 535.078 203.972 537 194 537ZM185.984 498.665C187.225 498.665 188.346 498.376 189.348 497.8C190.35 497.224 191.233 496.359 191.996 495.206L225.633 441.81C226.063 441.09 226.468 440.321 226.85 439.504C227.232 438.688 227.423 437.871 227.423 437.054C227.423 435.373 226.802 434.052 225.562 433.091C224.321 432.082 222.938 431.578 221.411 431.578C219.311 431.578 217.594 432.683 216.258 434.893L185.698 484.325L171.17 465.446C170.263 464.245 169.38 463.428 168.522 462.996C167.71 462.563 166.78 462.347 165.73 462.347C164.108 462.347 162.748 462.948 161.651 464.149C160.554 465.301 160.005 466.695 160.005 468.328C160.005 469.145 160.148 469.961 160.434 470.778C160.768 471.547 161.198 472.291 161.723 473.012L179.686 495.206C180.641 496.455 181.619 497.344 182.621 497.872C183.623 498.4 184.744 498.665 185.984 498.665Z" fill="white"/>
<path opacity="0.6" fill-rule="evenodd" clip-rule="evenodd" d="M393 0H0V925C153.476 925 238.024 925 391.5 925L393 0ZM375 331.5H19V581C19 588.732 25.268 595 33 595H361C368.732 595 375 588.732 375 581V331.5Z" fill="black"/>
</svg>
