<svg width="393" height="925" viewBox="0 0 393 925" fill="none" xmlns="http://www.w3.org/2000/svg">
<g opacity="0.8">
<path fill-rule="evenodd" clip-rule="evenodd" d="M56.7322 510.768C57.7085 509.791 57.7085 508.209 56.7322 507.232C55.7559 506.256 54.173 506.256 53.1967 507.232L44.7333 515.696C44.733 515.696 44.7326 515.696 44.7322 515.697C43.7559 516.673 43.7559 518.256 44.7322 519.232C44.7327 519.233 44.7332 519.233 44.7337 519.234L53.1967 527.697C54.173 528.673 55.7559 528.673 56.7322 527.697C57.7085 526.72 57.7085 525.137 56.7322 524.161L50.0355 517.464L56.7322 510.768Z" fill="white"/>
<path fill-rule="evenodd" clip-rule="evenodd" d="M76.1966 510.768C77.1729 509.791 77.1729 508.209 76.1966 507.232C75.2203 506.256 73.6374 506.256 72.6611 507.232L64.1977 515.696C64.1973 515.696 64.197 515.696 64.1966 515.697C63.2203 516.673 63.2203 518.256 64.1966 519.232C64.1971 519.233 64.1976 519.233 64.1981 519.234L72.6611 527.697C73.6374 528.673 75.2203 528.673 76.1966 527.697C77.1729 526.72 77.1729 525.137 76.1966 524.161L69.4999 517.464L76.1966 510.768Z" fill="white"/>
<path fill-rule="evenodd" clip-rule="evenodd" d="M95.6612 510.768C96.6375 509.791 96.6375 508.209 95.6612 507.232C94.6849 506.256 93.102 506.256 92.1257 507.232L83.6623 515.696C83.6619 515.696 83.6616 515.696 83.6612 515.697C82.6849 516.673 82.6849 518.256 83.6612 519.232C83.6617 519.233 83.6622 519.233 83.6627 519.234L92.1257 527.697C93.102 528.673 94.6849 528.673 95.6612 527.697C96.6375 526.72 96.6375 525.137 95.6612 524.161L88.9645 517.464L95.6612 510.768Z" fill="white"/>
<path fill-rule="evenodd" clip-rule="evenodd" d="M115.126 510.768C116.102 509.791 116.102 508.209 115.126 507.232C114.149 506.256 112.566 506.256 111.59 507.232L103.127 515.696C103.126 515.696 103.126 515.696 103.126 515.697C102.149 516.673 102.149 518.256 103.126 519.232C103.126 519.233 103.127 519.233 103.127 519.234L111.59 527.697C112.566 528.673 114.149 528.673 115.126 527.697C116.102 526.72 116.102 525.137 115.126 524.161L108.429 517.464L115.126 510.768Z" fill="white"/>
<path fill-rule="evenodd" clip-rule="evenodd" d="M134.59 510.768C135.566 509.791 135.566 508.209 134.59 507.232C133.614 506.256 132.031 506.256 131.055 507.232L122.591 515.696C122.591 515.696 122.591 515.696 122.59 515.697C121.614 516.673 121.614 518.256 122.59 519.232C122.591 519.233 122.591 519.233 122.592 519.234L131.055 527.697C132.031 528.673 133.614 528.673 134.59 527.697C135.566 526.72 135.566 525.137 134.59 524.161L127.893 517.464L134.59 510.768Z" fill="white"/>
<path fill-rule="evenodd" clip-rule="evenodd" d="M154.054 510.768C155.031 509.791 155.031 508.209 154.054 507.232C153.078 506.256 151.495 506.256 150.519 507.232L142.056 515.696C142.055 515.696 142.055 515.696 142.054 515.697C141.078 516.673 141.078 518.256 142.054 519.232C142.055 519.233 142.056 519.233 142.056 519.234L150.519 527.697C151.495 528.673 153.078 528.673 154.054 527.697C155.031 526.72 155.031 525.137 154.054 524.161L147.358 517.464L154.054 510.768Z" fill="white"/>
<path fill-rule="evenodd" clip-rule="evenodd" d="M173.519 510.768C174.495 509.791 174.495 508.209 173.519 507.232C172.543 506.256 170.96 506.256 169.984 507.232L161.52 515.696C161.52 515.696 161.519 515.696 161.519 515.697C160.543 516.673 160.543 518.256 161.519 519.232C161.52 519.233 161.52 519.233 161.521 519.234L169.984 527.697C170.96 528.673 172.543 528.673 173.519 527.697C174.495 526.72 174.495 525.137 173.519 524.161L166.822 517.464L173.519 510.768Z" fill="white"/>
<path fill-rule="evenodd" clip-rule="evenodd" d="M192.983 510.768C193.96 509.791 193.96 508.209 192.983 507.232C192.007 506.256 190.424 506.256 189.448 507.232L180.985 515.696C180.984 515.696 180.984 515.696 180.983 515.697C180.007 516.673 180.007 518.256 180.983 519.232C180.984 519.233 180.984 519.233 180.985 519.234L189.448 527.697C190.424 528.673 192.007 528.673 192.983 527.697C193.96 526.72 193.96 525.137 192.983 524.161L186.287 517.464L192.983 510.768Z" fill="white"/>
<path fill-rule="evenodd" clip-rule="evenodd" d="M212.448 510.768C213.424 509.791 213.424 508.209 212.448 507.232C211.472 506.256 209.889 506.256 208.913 507.232L200.449 515.696C200.449 515.696 200.448 515.696 200.448 515.697C199.472 516.673 199.472 518.256 200.448 519.232C200.449 519.233 200.449 519.233 200.45 519.234L208.913 527.697C209.889 528.673 211.472 528.673 212.448 527.697C213.424 526.72 213.424 525.137 212.448 524.161L205.751 517.464L212.448 510.768Z" fill="white"/>
<path fill-rule="evenodd" clip-rule="evenodd" d="M231.912 510.768C232.889 509.791 232.889 508.209 231.912 507.232C230.936 506.256 229.353 506.256 228.377 507.232L219.913 515.696C219.913 515.696 219.913 515.696 219.912 515.697C218.936 516.673 218.936 518.256 219.912 519.232C219.913 519.233 219.913 519.233 219.914 519.234L228.377 527.697C229.353 528.673 230.936 528.673 231.912 527.697C232.889 526.72 232.889 525.137 231.912 524.161L225.216 517.464L231.912 510.768Z" fill="white"/>
<path fill-rule="evenodd" clip-rule="evenodd" d="M251.377 510.768C252.353 509.791 252.353 508.209 251.377 507.232C250.4 506.256 248.818 506.256 247.841 507.232L239.378 515.696C239.377 515.696 239.377 515.696 239.377 515.697C238.4 516.673 238.4 518.256 239.377 519.232C239.377 519.233 239.378 519.233 239.378 519.234L247.841 527.697C248.818 528.673 250.4 528.673 251.377 527.697C252.353 526.72 252.353 525.137 251.377 524.161L244.68 517.464L251.377 510.768Z" fill="white"/>
<path fill-rule="evenodd" clip-rule="evenodd" d="M270.841 510.768C271.818 509.791 271.818 508.209 270.841 507.232C269.865 506.256 268.282 506.256 267.306 507.232L258.842 515.696C258.842 515.696 258.842 515.696 258.841 515.697C257.865 516.673 257.865 518.256 258.841 519.232C258.842 519.233 258.842 519.233 258.843 519.234L267.306 527.697C268.282 528.673 269.865 528.673 270.841 527.697C271.818 526.72 271.818 525.137 270.841 524.161L264.145 517.464L270.841 510.768Z" fill="white"/>
<path fill-rule="evenodd" clip-rule="evenodd" d="M290.306 510.768C291.282 509.791 291.282 508.209 290.306 507.232C289.33 506.256 287.747 506.256 286.77 507.232L278.307 515.696C278.307 515.696 278.306 515.696 278.306 515.697C277.33 516.673 277.33 518.256 278.306 519.232C278.306 519.233 278.307 519.233 278.307 519.234L286.77 527.697C287.747 528.673 289.33 528.673 290.306 527.697C291.282 526.72 291.282 525.137 290.306 524.161L283.609 517.464L290.306 510.768Z" fill="white"/>
<path fill-rule="evenodd" clip-rule="evenodd" d="M309.77 510.768C310.747 509.791 310.747 508.209 309.77 507.232C308.794 506.256 307.211 506.256 306.235 507.232L297.771 515.696C297.771 515.696 297.771 515.696 297.77 515.697C296.794 516.673 296.794 518.256 297.77 519.232C297.771 519.233 297.771 519.233 297.772 519.234L306.235 527.697C307.211 528.673 308.794 528.673 309.77 527.697C310.747 526.72 310.747 525.137 309.77 524.161L303.074 517.464L309.77 510.768Z" fill="white"/>
<path fill-rule="evenodd" clip-rule="evenodd" d="M329.235 510.768C330.211 509.791 330.211 508.209 329.235 507.232C328.258 506.256 326.675 506.256 325.699 507.232L317.236 515.696C317.235 515.696 317.235 515.696 317.235 515.697C316.258 516.673 316.258 518.256 317.235 519.232C317.235 519.233 317.236 519.233 317.236 519.234L325.699 527.697C326.675 528.673 328.258 528.673 329.235 527.697C330.211 526.72 330.211 525.137 329.235 524.161L322.538 517.464L329.235 510.768Z" fill="white"/>
<path fill-rule="evenodd" clip-rule="evenodd" d="M348.699 510.768C349.675 509.791 349.675 508.209 348.699 507.232C347.723 506.256 346.14 506.256 345.163 507.232L336.7 515.696C336.7 515.696 336.699 515.696 336.699 515.697C335.723 516.673 335.723 518.256 336.699 519.232C336.7 519.233 336.7 519.233 336.701 519.234L345.163 527.697C346.14 528.673 347.723 528.673 348.699 527.697C349.675 526.72 349.675 525.137 348.699 524.161L342.002 517.464L348.699 510.768Z" fill="white"/>
<path fill-rule="evenodd" clip-rule="evenodd" d="M56.7322 548.697C57.7085 547.72 57.7085 546.137 56.7322 545.161C55.7559 544.185 54.173 544.185 53.1967 545.161L44.7333 553.625C44.733 553.625 44.7326 553.625 44.7322 553.626C43.7559 554.602 43.7559 556.185 44.7322 557.161C44.7327 557.162 44.7332 557.162 44.7337 557.163L53.1967 565.626C54.173 566.602 55.7559 566.602 56.7322 565.626C57.7085 564.649 57.7085 563.066 56.7322 562.09L50.0355 555.393L56.7322 548.697Z" fill="white"/>
<path fill-rule="evenodd" clip-rule="evenodd" d="M76.1966 548.697C77.1729 547.72 77.1729 546.137 76.1966 545.161C75.2203 544.185 73.6374 544.185 72.6611 545.161L64.1977 553.625C64.1973 553.625 64.197 553.625 64.1966 553.626C63.2203 554.602 63.2203 556.185 64.1966 557.161C64.1971 557.162 64.1976 557.162 64.1981 557.163L72.6611 565.626C73.6374 566.602 75.2203 566.602 76.1966 565.626C77.1729 564.649 77.1729 563.066 76.1966 562.09L69.4999 555.393L76.1966 548.697Z" fill="white"/>
<path fill-rule="evenodd" clip-rule="evenodd" d="M95.6612 548.697C96.6375 547.72 96.6375 546.137 95.6612 545.161C94.6849 544.185 93.102 544.185 92.1257 545.161L83.6623 553.625C83.6619 553.625 83.6616 553.625 83.6612 553.626C82.6849 554.602 82.6849 556.185 83.6612 557.161C83.6617 557.162 83.6622 557.162 83.6627 557.163L92.1257 565.626C93.102 566.602 94.6849 566.602 95.6612 565.626C96.6375 564.649 96.6375 563.066 95.6612 562.09L88.9645 555.393L95.6612 548.697Z" fill="white"/>
<path fill-rule="evenodd" clip-rule="evenodd" d="M115.126 548.697C116.102 547.72 116.102 546.137 115.126 545.161C114.149 544.185 112.566 544.185 111.59 545.161L103.127 553.625C103.126 553.625 103.126 553.625 103.126 553.626C102.149 554.602 102.149 556.185 103.126 557.161C103.126 557.162 103.127 557.162 103.127 557.163L111.59 565.626C112.566 566.602 114.149 566.602 115.126 565.626C116.102 564.649 116.102 563.066 115.126 562.09L108.429 555.393L115.126 548.697Z" fill="white"/>
<path fill-rule="evenodd" clip-rule="evenodd" d="M134.59 548.697C135.566 547.72 135.566 546.137 134.59 545.161C133.614 544.185 132.031 544.185 131.055 545.161L122.591 553.625C122.591 553.625 122.591 553.625 122.59 553.626C121.614 554.602 121.614 556.185 122.59 557.161C122.591 557.162 122.591 557.162 122.592 557.163L131.055 565.626C132.031 566.602 133.614 566.602 134.59 565.626C135.566 564.649 135.566 563.066 134.59 562.09L127.893 555.393L134.59 548.697Z" fill="white"/>
<path fill-rule="evenodd" clip-rule="evenodd" d="M154.054 548.697C155.031 547.72 155.031 546.137 154.054 545.161C153.078 544.185 151.495 544.185 150.519 545.161L142.056 553.625C142.055 553.625 142.055 553.625 142.054 553.626C141.078 554.602 141.078 556.185 142.054 557.161C142.055 557.162 142.056 557.162 142.056 557.163L150.519 565.626C151.495 566.602 153.078 566.602 154.054 565.626C155.031 564.649 155.031 563.066 154.054 562.09L147.358 555.393L154.054 548.697Z" fill="white"/>
<path fill-rule="evenodd" clip-rule="evenodd" d="M173.519 548.697C174.495 547.72 174.495 546.137 173.519 545.161C172.543 544.185 170.96 544.185 169.984 545.161L161.52 553.625C161.52 553.625 161.519 553.625 161.519 553.626C160.543 554.602 160.543 556.185 161.519 557.161C161.52 557.162 161.52 557.162 161.521 557.163L169.984 565.626C170.96 566.602 172.543 566.602 173.519 565.626C174.495 564.649 174.495 563.066 173.519 562.09L166.822 555.393L173.519 548.697Z" fill="white"/>
<path fill-rule="evenodd" clip-rule="evenodd" d="M192.983 548.697C193.96 547.72 193.96 546.137 192.983 545.161C192.007 544.185 190.424 544.185 189.448 545.161L180.985 553.625C180.984 553.625 180.984 553.625 180.983 553.626C180.007 554.602 180.007 556.185 180.983 557.161C180.984 557.162 180.984 557.162 180.985 557.163L189.448 565.626C190.424 566.602 192.007 566.602 192.983 565.626C193.96 564.649 193.96 563.066 192.983 562.09L186.287 555.393L192.983 548.697Z" fill="white"/>
<path fill-rule="evenodd" clip-rule="evenodd" d="M212.448 548.697C213.424 547.72 213.424 546.137 212.448 545.161C211.472 544.185 209.889 544.185 208.913 545.161L200.449 553.625C200.449 553.625 200.448 553.625 200.448 553.626C199.472 554.602 199.472 556.185 200.448 557.161C200.449 557.162 200.449 557.162 200.45 557.163L208.913 565.626C209.889 566.602 211.472 566.602 212.448 565.626C213.424 564.649 213.424 563.066 212.448 562.09L205.751 555.393L212.448 548.697Z" fill="white"/>
<path fill-rule="evenodd" clip-rule="evenodd" d="M231.912 548.697C232.889 547.72 232.889 546.137 231.912 545.161C230.936 544.185 229.353 544.185 228.377 545.161L219.913 553.625C219.913 553.625 219.913 553.625 219.912 553.626C218.936 554.602 218.936 556.185 219.912 557.161C219.913 557.162 219.913 557.162 219.914 557.163L228.377 565.626C229.353 566.602 230.936 566.602 231.912 565.626C232.889 564.649 232.889 563.066 231.912 562.09L225.216 555.393L231.912 548.697Z" fill="white"/>
<path fill-rule="evenodd" clip-rule="evenodd" d="M251.377 548.697C252.353 547.72 252.353 546.137 251.377 545.161C250.4 544.185 248.818 544.185 247.841 545.161L239.378 553.625C239.377 553.625 239.377 553.625 239.377 553.626C238.4 554.602 238.4 556.185 239.377 557.161C239.377 557.162 239.378 557.162 239.378 557.163L247.841 565.626C248.818 566.602 250.4 566.602 251.377 565.626C252.353 564.649 252.353 563.066 251.377 562.09L244.68 555.393L251.377 548.697Z" fill="white"/>
<path fill-rule="evenodd" clip-rule="evenodd" d="M270.841 548.697C271.818 547.72 271.818 546.137 270.841 545.161C269.865 544.185 268.282 544.185 267.306 545.161L258.842 553.625C258.842 553.625 258.842 553.625 258.841 553.626C257.865 554.602 257.865 556.185 258.841 557.161C258.842 557.162 258.842 557.162 258.843 557.163L267.306 565.626C268.282 566.602 269.865 566.602 270.841 565.626C271.818 564.649 271.818 563.066 270.841 562.09L264.145 555.393L270.841 548.697Z" fill="white"/>
<path fill-rule="evenodd" clip-rule="evenodd" d="M290.306 548.697C291.282 547.72 291.282 546.137 290.306 545.161C289.33 544.185 287.747 544.185 286.77 545.161L278.307 553.625C278.307 553.625 278.306 553.625 278.306 553.626C277.33 554.602 277.33 556.185 278.306 557.161C278.306 557.162 278.307 557.162 278.307 557.163L286.77 565.626C287.747 566.602 289.33 566.602 290.306 565.626C291.282 564.649 291.282 563.066 290.306 562.09L283.609 555.393L290.306 548.697Z" fill="white"/>
<path fill-rule="evenodd" clip-rule="evenodd" d="M309.77 548.697C310.747 547.72 310.747 546.137 309.77 545.161C308.794 544.185 307.211 544.185 306.235 545.161L297.771 553.625C297.771 553.625 297.771 553.625 297.77 553.626C296.794 554.602 296.794 556.185 297.77 557.161C297.771 557.162 297.771 557.162 297.772 557.163L306.235 565.626C307.211 566.602 308.794 566.602 309.77 565.626C310.747 564.649 310.747 563.066 309.77 562.09L303.074 555.393L309.77 548.697Z" fill="white"/>
<path fill-rule="evenodd" clip-rule="evenodd" d="M329.235 548.697C330.211 547.72 330.211 546.137 329.235 545.161C328.258 544.185 326.675 544.185 325.699 545.161L317.236 553.625C317.235 553.625 317.235 553.625 317.235 553.626C316.258 554.602 316.258 556.185 317.235 557.161C317.235 557.162 317.236 557.162 317.236 557.163L325.699 565.626C326.675 566.602 328.258 566.602 329.235 565.626C330.211 564.649 330.211 563.066 329.235 562.09L322.538 555.393L329.235 548.697Z" fill="white"/>
<path fill-rule="evenodd" clip-rule="evenodd" d="M348.699 548.697C349.675 547.72 349.675 546.137 348.699 545.161C347.723 544.185 346.14 544.185 345.163 545.161L336.7 553.625C336.7 553.625 336.699 553.625 336.699 553.626C335.723 554.602 335.723 556.185 336.699 557.161C336.7 557.162 336.7 557.162 336.701 557.163L345.163 565.626C346.14 566.602 347.723 566.602 348.699 565.626C349.675 564.649 349.675 563.066 348.699 562.09L342.002 555.393L348.699 548.697Z" fill="white"/>
</g>
<path opacity="0.8" d="M21.5 333.5H372.5V581C372.5 587.351 367.351 592.5 361 592.5H33C26.6487 592.5 21.5 587.351 21.5 581V333.5Z" stroke="white" stroke-width="5"/>
<path opacity="0.8" fill-rule="evenodd" clip-rule="evenodd" d="M109.544 397.868C109.544 411.05 98.858 421.736 85.6759 421.736C72.4939 421.736 61.8077 411.05 61.8077 397.868C61.8077 384.686 72.4939 374 85.676 374C98.858 374 109.544 384.686 109.544 397.868ZM93.6211 425.629C105.701 422.179 114.544 411.056 114.544 397.868C114.544 381.925 101.619 369 85.676 369C69.7325 369 56.8077 381.925 56.8077 397.868C56.8077 411.056 65.6508 422.179 77.7308 425.629C61.4521 428.52 48.1379 440.138 42.6599 455.546C39.6999 463.873 47.1497 471.242 55.9863 471.242L115.366 471.242C124.202 471.242 131.652 463.873 128.692 455.546C123.214 440.138 109.9 428.52 93.6211 425.629ZM47.371 457.221C53.0425 441.268 68.0852 429.932 85.676 429.932C103.267 429.932 118.309 441.268 123.981 457.221C124.779 459.467 124.245 461.497 122.738 463.17C121.137 464.947 118.44 466.242 115.366 466.242L115.215 466.242L115.064 466.242L114.914 466.242L114.764 466.242L114.614 466.242L114.465 466.242L114.317 466.242L114.168 466.242L114.02 466.242L113.873 466.242L113.726 466.242L113.579 466.242L113.433 466.242L113.287 466.242L113.142 466.242L112.997 466.242L112.852 466.242L112.708 466.242L112.564 466.242L112.42 466.242L112.277 466.242L112.134 466.242L111.992 466.242L111.85 466.242L111.708 466.242L111.567 466.242L111.426 466.242L111.286 466.242L111.145 466.242L111.006 466.242L110.866 466.242L110.727 466.242L110.588 466.242L110.45 466.242L110.312 466.242L110.174 466.242L110.037 466.242L109.9 466.242L109.764 466.242L109.627 466.242L109.492 466.242L109.356 466.242L109.221 466.242L109.086 466.242L108.952 466.242L108.818 466.242L108.684 466.242L108.55 466.242L108.417 466.242L108.284 466.242L108.152 466.242L108.02 466.242L107.888 466.242L107.756 466.242L107.625 466.242L107.495 466.242L107.364 466.242L107.234 466.242L107.104 466.242L106.974 466.242L106.845 466.242L106.716 466.242L106.588 466.242L106.459 466.242L106.332 466.242L106.204 466.242L106.077 466.242L105.949 466.242L105.823 466.242L105.696 466.242L105.57 466.242L105.444 466.242L105.319 466.242L105.194 466.242L105.069 466.242L104.944 466.242L104.82 466.242L104.696 466.242L104.572 466.242L104.448 466.242L104.325 466.242L104.202 466.242L104.079 466.242L103.957 466.242L103.835 466.242L103.713 466.242L103.592 466.242L103.47 466.242L103.349 466.242L103.229 466.242L103.108 466.242L102.988 466.242L102.868 466.242L102.748 466.242L102.629 466.242L102.51 466.242L102.391 466.242L102.272 466.242L102.154 466.242L102.036 466.242L101.918 466.242L101.8 466.242L101.683 466.242L101.566 466.242L101.449 466.242L101.332 466.242L101.216 466.242L101.1 466.242L100.984 466.242L100.868 466.242L100.753 466.242L100.638 466.242L100.523 466.242L100.408 466.242L100.293 466.242L100.179 466.242L100.065 466.242L99.9513 466.242L99.8377 466.242L99.7243 466.242L99.6112 466.242L99.4983 466.242L99.3855 466.242L99.273 466.242L99.1607 466.242L99.0487 466.242L98.9368 466.242L98.8251 466.242L98.7137 466.242L98.6024 466.242L98.4914 466.242L98.3805 466.242L98.2699 466.242L98.1594 466.242L98.0492 466.242L97.9391 466.242L97.8293 466.242L97.7196 466.242L97.6101 466.242L97.5008 466.242L97.3917 466.242L97.2828 466.242L97.1741 466.242L97.0656 466.242L96.9572 466.242L96.849 466.242L96.741 466.242L96.6332 466.242L96.5255 466.242L96.418 466.242L96.3107 466.242L96.2036 466.242L96.0966 466.242L95.9898 466.242L95.8831 466.242L95.7767 466.242L95.6704 466.242L95.5642 466.242L95.4582 466.242L95.3524 466.242L95.2467 466.242L95.1411 466.242L95.0358 466.242L94.9305 466.242L94.8254 466.242L94.7205 466.242L94.6157 466.242L94.5111 466.242L94.4066 466.242L94.3022 466.242L94.198 466.242L94.0939 466.242L93.99 466.242L93.8861 466.242L93.7825 466.242L93.6789 466.242L93.5755 466.242L93.4722 466.242L93.369 466.242L93.266 466.242L93.1631 466.242L93.0603 466.242L92.9576 466.242L92.855 466.242L92.7526 466.242L92.6502 466.242L92.548 466.242L92.4459 466.242L92.3439 466.242L92.242 466.242L92.1402 466.242L92.0386 466.242L91.937 466.242L91.8355 466.242L91.7342 466.242L91.6329 466.242L91.5317 466.242L91.4306 466.242L91.3296 466.242L91.2288 466.242L91.128 466.242L91.0272 466.242L90.9266 466.242L90.8261 466.242L90.7256 466.242L90.6252 466.242L90.5249 466.242L90.4247 466.242L90.3246 466.242L90.2245 466.242L90.1245 466.242L90.0246 466.242L89.9248 466.242L89.825 466.242L89.7253 466.242L89.6257 466.242L89.5261 466.242L89.4266 466.242L89.3271 466.242L89.2278 466.242L89.1284 466.242L89.0292 466.242L88.9299 466.242L88.8308 466.242L88.7316 466.242L88.6326 466.242L88.5336 466.242L88.4346 466.242L88.3357 466.242L88.2368 466.242L88.138 466.242L88.0392 466.242L87.9404 466.242L87.8417 466.242L87.743 466.242L87.6443 466.242L87.5457 466.242L87.4471 466.242L87.3486 466.242L87.25 466.242L87.1515 466.242L87.0531 466.242L86.9546 466.242L86.8562 466.242L86.7577 466.242L86.6593 466.242L86.5609 466.242L86.4626 466.242L86.3642 466.242L86.2659 466.242L86.1675 466.242L86.0692 466.242L85.9709 466.242L85.8726 466.242L85.7743 466.242L85.6759 466.242L85.5776 466.242L85.4793 466.242L85.381 466.242L85.2827 466.242L85.1844 466.242L85.086 466.242L84.9877 466.242L84.8893 466.242L84.7909 466.242L84.6926 466.242L84.5942 466.242L84.4957 466.242L84.3973 466.242L84.2988 466.242L84.2004 466.242L84.1019 466.242L84.0033 466.242L83.9048 466.242L83.8062 466.242L83.7075 466.242L83.6089 466.242L83.5102 466.242L83.4115 466.242L83.3127 466.242L83.2139 466.242L83.1151 466.242L83.0162 466.242L82.9173 466.242L82.8183 466.242L82.7193 466.242L82.6202 466.242L82.5211 466.242L82.422 466.242L82.3227 466.242L82.2235 466.242L82.1241 466.242L82.0247 466.242L81.9253 466.242L81.8258 466.242L81.7262 466.242L81.6266 466.242L81.5269 466.242L81.4271 466.242L81.3273 466.242L81.2273 466.242L81.1274 466.242L81.0273 466.242L80.9272 466.242L80.8269 466.242L80.7267 466.242L80.6263 466.242L80.5258 466.242L80.4253 466.242L80.3247 466.242L80.2239 466.242L80.1231 466.242L80.0222 466.242L79.9213 466.242L79.8202 466.242L79.719 466.242L79.6177 466.242L79.5164 466.242L79.4149 466.242L79.3133 466.242L79.2116 466.242L79.1099 466.242L79.008 466.242L78.906 466.242L78.8039 466.242L78.7017 466.242L78.5993 466.242L78.4969 466.242L78.3943 466.242L78.2916 466.242L78.1888 466.242L78.0859 466.242L77.9829 466.242L77.8797 466.242L77.7764 466.242L77.673 466.242L77.5694 466.242L77.4657 466.242L77.3619 466.242L77.258 466.242L77.1539 466.242L77.0497 466.242L76.9453 466.242L76.8408 466.242L76.7362 466.242L76.6314 466.242L76.5264 466.242L76.4214 466.242L76.3161 466.242L76.2108 466.242L76.1052 466.242L75.9995 466.242L75.8937 466.242L75.7877 466.242L75.6815 466.242L75.5752 466.242L75.4687 466.242L75.3621 466.242L75.2553 466.242L75.1483 466.242L75.0412 466.242L74.9339 466.242L74.8264 466.242L74.7187 466.242L74.6109 466.242L74.5029 466.242L74.3947 466.242L74.2863 466.242L74.1778 466.242L74.0691 466.242L73.9602 466.242L73.8511 466.242L73.7418 466.242L73.6323 466.242L73.5226 466.242L73.4128 466.242L73.3027 466.242L73.1925 466.242L73.082 466.242L72.9714 466.242L72.8605 466.242L72.7495 466.242L72.6382 466.242L72.5268 466.242L72.4151 466.242L72.3032 466.242L72.1912 466.242L72.0789 466.242L71.9664 466.242L71.8536 466.242L71.7407 466.242L71.6275 466.242L71.5142 466.242L71.4006 466.242L71.2867 466.242L71.1727 466.242L71.0584 466.242L70.9439 466.242L70.8292 466.242L70.7142 466.242L70.599 466.242L70.4836 466.242L70.3679 466.242L70.252 466.242L70.1359 466.242L70.0195 466.242L69.9029 466.242L69.786 466.242L69.6689 466.242L69.5515 466.242L69.4339 466.242L69.3161 466.242L69.1979 466.242L69.0796 466.242L68.9609 466.242L68.8421 466.242L68.7229 466.242L68.6035 466.242L68.4839 466.242L68.3639 466.242L68.2437 466.242L68.1233 466.242L68.0026 466.242L67.8816 466.242L67.7603 466.242L67.6387 466.242L67.5169 466.242L67.3948 466.242L67.2725 466.242L67.1498 466.242L67.0269 466.242L66.9037 466.242L66.7802 466.242L66.6564 466.242L66.5323 466.242L66.4079 466.242L66.2833 466.242L66.1583 466.242L66.0331 466.242L65.9076 466.242L65.7817 466.242L65.6556 466.242L65.5291 466.242L65.4024 466.242L65.2754 466.242L65.148 466.242L65.0204 466.242L64.8924 466.242L64.7641 466.242L64.6355 466.242L64.5066 466.242L64.3774 466.242L64.2479 466.242L64.118 466.242L63.9879 466.242L63.8574 466.242L63.7266 466.242L63.5954 466.242L63.4639 466.242L63.3321 466.242L63.2 466.242L63.0676 466.242L62.9348 466.242L62.8016 466.242L62.6682 466.242L62.5344 466.242L62.4002 466.242L62.2658 466.242L62.1309 466.242L61.9958 466.242L61.8603 466.242L61.7244 466.242L61.5882 466.242L61.4516 466.242L61.3147 466.242L61.1774 466.242L61.0398 466.242L60.9018 466.242L60.7635 466.242L60.6248 466.242L60.4857 466.242L60.3463 466.242L60.2065 466.242L60.0663 466.242L59.9258 466.242L59.7849 466.242L59.6436 466.242L59.502 466.242L59.36 466.242L59.2176 466.242L59.0748 466.242L58.9317 466.242L58.7881 466.242L58.6442 466.242L58.4999 466.242L58.3552 466.242L58.2101 466.242L58.0647 466.242L57.9188 466.242L57.7725 466.242L57.6259 466.242L57.4788 466.242L57.3314 466.242L57.1836 466.242L57.0353 466.242L56.8867 466.242L56.7376 466.242L56.5882 466.242L56.4383 466.242L56.288 466.242L56.1374 466.242L55.9863 466.242C52.9114 466.242 50.2153 464.947 48.6144 463.17C47.1071 461.497 46.5725 459.467 47.371 457.221Z" fill="white"/>
<path opacity="0.6" fill-rule="evenodd" clip-rule="evenodd" d="M393 0H0V925C153.476 925 238.024 925 391.5 925L393 0ZM375 331.5H19V581C19 588.732 25.268 595 33 595H361C368.732 595 375 588.732 375 581V331.5Z" fill="black"/>
</svg>
